<svg width="32" height="32" viewBox="0 0 32 32" fill="none" xmlns="http://www.w3.org/2000/svg">
  <defs>
    <linearGradient id="faviconGradient" x1="0%" y1="0%" x2="100%" y2="100%">
      <stop offset="0%" style="stop-color:#7c9cbf;stop-opacity:1" />
      <stop offset="50%" style="stop-color:#a8b5c8;stop-opacity:1" />
      <stop offset="100%" style="stop-color:#c4a5a5;stop-opacity:1" />
    </linearGradient>
  </defs>
  
  <!-- Background -->
  <rect width="32" height="32" rx="6" fill="url(#faviconGradient)"/>
  
  <!-- Simplified Brain Icon -->
  <g transform="translate(16, 12)">
    <!-- Left hemisphere -->
    <path d="M -4 0 Q -6 -2.5, -4 -4 Q -2.5 -5, -1 -4 Q 0 -3, 0 -1.5 L 0 1.5 Q 0 3, -1 4 Q -2.5 5, -4 4 Q -6 2.5, -4 0 Z" 
          fill="white" opacity="0.95"/>
    <!-- Right hemisphere -->
    <path d="M 4 0 Q 6 -2.5, 4 -4 Q 2.5 -5, 1 -4 Q 0 -3, 0 -1.5 L 0 1.5 Q 0 3, 1 4 Q 2.5 5, 4 4 Q 6 2.5, 4 0 Z" 
          fill="white" opacity="0.95"/>
    <!-- Connection -->
    <line x1="-1" y1="-2" x2="1" y2="-2" stroke="white" stroke-width="0.8" opacity="0.8"/>
    <line x1="-1" y1="0" x2="1" y2="0" stroke="white" stroke-width="0.8" opacity="0.8"/>
    <line x1="-1" y1="2" x2="1" y2="2" stroke="white" stroke-width="0.8" opacity="0.8"/>
  </g>
  
  <!-- Letter E -->
  <text x="16" y="27" font-family="Arial, sans-serif" font-size="10" font-weight="bold" 
        text-anchor="middle" fill="white">E</text>
</svg>
